# xmcd
#
# Track frame offsets:
#	150
#	13482
#	36647
#	51655
#	66342
#	87960
#	101630
#	115757
#	133847
#	150127
#	165197
#	178480
#	193422
#	213532
#	229912
#	244075
#
# Disc length: 3620 seconds
#
# Revision: 12
# Processed by: cddbd v1.4PL0 Copyright (c) Steve Scherf et al.
# Submitted via: audiograbber 1.80
#
DISCID=f00e2210
DTITLE=Clapton, Eric - From The Cradle
DYEAR=1994
DGENRE=Soundtrack
TTITLE0=Blues Before Sunrise
TTITLE1=Third Degree
TTITLE2=Reconsider Baby
TTITLE3=Hoochie Coochie Man
TTITLE4=Five Long Years
TTITLE5=I'm Tore Down
TTITLE6=How Long Blues
TTITLE7=Goin' Away Baby
TTITLE8=Blues Leave Me Alone
TTITLE9=Sinner's Prayer
TTITLE10=Motherless Child
TTITLE11=It Hurts Me Too
TTITLE12=Someday After A While
TTITLE13=Standin' Round Crying
TTITLE14=Driftin'
TTITLE15=Groaning The Blues
EXTD=YEAR: 1994 ID3G: 24
EXTT0=
EXTT1=
EXTT2=
EXTT3=
EXTT4=
EXTT5=
EXTT6=
EXTT7=
EXTT8=
EXTT9=
EXTT10=
EXTT11=
EXTT12=
EXTT13=
EXTT14=
EXTT15=
PLAYORDER=
